<?xml version="1.0" encoding="UTF-8"?>
<svg width="231px" height="149px" viewBox="0 0 231 149" version="1.1" xmlns="http://www.w3.org/2000/svg" xmlns:xlink="http://www.w3.org/1999/xlink">
    <!-- Generator: Sketch 49.1 (51147) - http://www.bohemiancoding.com/sketch -->
    <title>Logo</title>
    <desc>Created with Sketch.</desc>
    <defs></defs>
    <g id="Onboarding" stroke="none" stroke-width="1" fill="none" fill-rule="evenodd">
        <g id="Splash" transform="translate(-73.000000, -186.000000)" fill="#FFFFFF">
            <g id="Group" transform="translate(8.000000, 186.000000)">
                <g id="Logo" transform="translate(65.000000, 0.000000)">
                    <g>
                        <g id="Group" transform="translate(0.000000, 99.776786)">
                            <path d="M115.5,9.46683058 C179.288889,9.46683058 231,12.7990597 231,8.24530405 C231,3.69154837 179.288889,0 115.5,0 C51.7111114,0 0,3.69154837 0,8.24530405 C0,12.7990597 51.7111114,9.46683058 115.5,9.46683058 Z" id="Oval-2"></path>
                            <path d="M114.172414,24.1007592 C166.963218,24.1007592 209.758621,27.4329883 209.758621,22.8792326 C209.758621,18.3254769 166.963218,14.6339286 114.172414,14.6339286 C61.3816094,14.6339286 18.5862069,18.3254769 18.5862069,22.8792326 C18.5862069,27.4329883 61.3816094,24.1007592 114.172414,24.1007592 Z" id="Oval-2-Copy"></path>
                            <path d="M113.508621,37.25 C152.735121,37.25 184.534483,37.0703146 184.534483,33.0938699 C184.534483,29.1174252 152.735121,29.2686122 113.508621,29.2686122 C74.2821202,29.2686122 42.4827586,29.1174252 42.4827586,33.0938699 C42.4827586,37.0703146 74.2821202,37.25 113.508621,37.25 Z" id="Oval-2-Copy-2"></path>
                            <path d="M112.181034,49.2232143 C139.676245,49.2232143 161.965517,49.0734765 161.965517,45.7597726 C161.965517,42.4460686 139.676245,42.5720577 112.181034,42.5720577 C84.6858239,42.5720577 62.3965517,42.4460686 62.3965517,45.7597726 C62.3965517,49.0734765 84.6858239,49.2232143 112.181034,49.2232143 Z" id="Oval-2-Copy-3"></path>
                        </g>
                        <path d="M113.579828,90.7821433 C174.502596,90.7821433 188.125,99.2687794 188.125,73.7822899 C188.125,33.5700458 154.749989,0.971581138 113.579828,0.971581138 C72.4096657,0.971581138 39.0346552,33.5700458 39.0346552,73.7822899 C39.0346552,98.5071752 52.6570595,90.7821433 113.579828,90.7821433 Z" id="Oval"></path>
                    </g>
                </g>
            </g>
        </g>
    </g>
</svg>